<svg width="238" height="176" viewBox="0 0 238 176" fill="none" xmlns="http://www.w3.org/2000/svg">
<path fill-rule="evenodd" clip-rule="evenodd" d="M38.0334 19.7379C32.492 28.0619 29.4642 35.5071 29.0001 41L24.6085 42.8987C25.1443 36.5583 28.9003 26.2389 34.7038 17.5213C40.4522 8.88616 48.7241 1.06705 58.6014 1.06709C60.6099 1.0671 62.4725 1.29113 64.1823 2.04225C65.9271 2.80874 67.3472 4.04988 68.5954 5.81032C70.9863 9.18249 72.9423 14.7779 75.5194 23.5004L71.5001 24C68.8772 15.1225 67.2664 10.8517 65.3323 8.12388C64.418 6.83432 63.5319 6.12546 62.5735 5.70445C61.5802 5.26807 60.3428 5.0671 58.6013 5.06709C50.8579 5.06706 43.6298 11.3313 38.0334 19.7379Z" fill="black"/>
<path fill-rule="evenodd" clip-rule="evenodd" d="M162.158 4.39879C160.411 3.87449 158.259 3.82502 155.596 4.50483C146.706 6.77465 138.704 12.8349 132.441 19.2392C126.193 25.6284 121.859 32.171 120.281 35.0908C119.755 36.0625 118.542 36.4244 117.57 35.8992C116.599 35.3739 116.237 34.1604 116.762 33.1887C118.517 29.9418 123.073 23.098 129.581 16.4425C136.075 9.80217 144.697 3.15934 154.607 0.629162C157.819 -0.191022 160.727 -0.206968 163.308 0.567629C165.898 1.34515 168.018 2.87721 169.708 4.92088C173.03 8.9374 174.734 14.9695 175.425 21.5828C176.816 34.8775 174.239 51.8037 170.427 63.7478L170.423 63.76L164.419 81.7722C164.069 82.8201 162.937 83.3864 161.889 83.0371C160.841 82.6878 160.275 81.5552 160.624 80.5073L166.62 62.5197C170.306 50.9645 172.766 34.6113 171.447 21.9989C170.784 15.6566 169.195 10.5767 166.626 7.47021C165.37 5.95238 163.895 4.92016 162.158 4.39879Z" fill="black"/>
<path fill-rule="evenodd" clip-rule="evenodd" d="M42.0826 65.6347C45.8121 64.6401 56.6286 62.9075 65.8731 70.5235L66.4556 71.0034L66.5758 71.7486C67.9111 80.0271 65.7789 86.9203 62.4344 91.7657C60.7684 94.1794 58.7908 96.1008 56.771 97.4323C54.7786 98.7457 52.616 99.5671 50.598 99.5671H50.4253L50.2552 99.5375C43.8861 98.4297 39.2406 94.7285 36.2619 90.3859C33.3108 86.0835 31.9113 81.0344 32.1001 76.9742L32.1041 76.8882L32.1155 76.8028C32.5102 73.8426 35.0151 67.5194 42.0826 65.6347ZM62.7384 73.1406C55.119 67.2972 46.3076 68.6478 43.1133 69.4996C38.246 70.7976 36.4012 75.1741 36.092 77.2495C35.9725 80.3468 37.0768 84.5023 39.5605 88.1233C42.0108 91.6955 45.7212 94.633 50.7559 95.5636C51.729 95.5205 53.0659 95.0838 54.5695 94.0926C56.1288 93.0647 57.7455 91.5173 59.1424 89.4935C61.8262 85.6053 63.6594 80.0158 62.7384 73.1406Z" fill="black"/>
<path fill-rule="evenodd" clip-rule="evenodd" d="M46.5746 73.3877C46.6767 73.582 46.7747 73.7686 46.8599 73.9259L47.1015 74.3717V74.8788C47.1015 75.7964 46.8979 76.6375 46.3874 77.424C45.9299 78.1287 45.2954 78.6721 44.7092 79.1358L44.1638 79.5671H43.4685C41.162 79.5671 39.2606 79.1537 37.8156 78.487C36.4597 77.8614 35.199 76.858 34.7639 75.4815C34.2982 74.0083 34.8606 72.5003 35.9464 71.4574C37.0306 70.4161 38.6464 69.7768 40.6499 69.6008C42.4286 69.4444 43.8612 69.8325 44.975 70.9508C45.4551 71.4327 45.8029 71.9806 46.0761 72.4608C46.2278 72.7274 46.4067 73.0681 46.5746 73.3877Z" fill="black"/>
<path fill-rule="evenodd" clip-rule="evenodd" d="M220.06 13.2509C215.043 10.8832 209.119 10.8601 203.83 12.9296C201.238 13.9438 199.343 15.3351 197.984 17.1271C196.619 18.9275 195.702 21.2566 195.269 24.2875C194.391 30.4349 195.548 39.1064 198.542 51.0821C200.282 58.0437 199.736 63.8088 197.633 68.5234C195.539 73.2162 191.987 76.6796 188.028 79.2111C180.173 84.234 170.387 85.8043 165.712 86.064L165.49 82.0702C169.816 81.8299 178.829 80.3456 185.873 75.8412C189.364 73.609 192.286 70.6906 193.98 66.8937C195.664 63.1185 196.219 58.286 194.661 52.0522C191.655 40.0279 190.312 30.6994 191.309 23.7218C191.813 20.1902 192.928 17.1755 194.797 14.7103C196.672 12.2367 199.214 10.4405 202.373 9.20466C208.584 6.77423 215.66 6.75115 221.767 9.63345C227.922 12.538 232.915 18.309 235.045 27.0959C236.61 33.5496 239.278 49.4275 236.374 64.9595C234.919 72.7464 232.044 80.5488 226.831 87.0284C221.594 93.5384 214.077 98.6098 203.547 101.017C185.842 105.064 171.575 105.5 161.5 105.5V101.5C171.425 101.5 185.361 101.071 202.656 97.1174C212.336 94.9048 219.058 90.3087 223.714 84.5211C228.395 78.7032 231.068 71.5778 232.442 64.2244C235.199 49.4759 232.657 34.2234 231.158 28.0383C229.288 20.3253 225.03 15.5963 220.06 13.2509Z" fill="black"/>
<path fill-rule="evenodd" clip-rule="evenodd" d="M83.2333 43.6262C92.3667 36.0408 110.088 34.8909 120.098 47.9479C129.837 60.6506 128.215 77.7891 119.925 86.079C117.428 88.5767 111.527 91.9976 104.39 93.1396C97.1683 94.295 88.5191 93.139 80.7583 86.2275C77.0107 83.5282 74.3249 80.1908 71.9497 77.2393L71.8899 77.165C69.4909 74.1841 67.4612 71.6911 64.8884 70.0274C62.4295 68.4372 59.3582 67.5443 54.772 68.1477L54.4928 68.1844L54.2144 68.1427C51.2255 67.6943 46.1375 68.1064 42.2107 69.6939C40.2537 70.4852 38.7965 71.4845 37.9742 72.6064C37.2239 73.6301 36.9046 74.8745 37.4244 76.5824L37.75 77.6523L37.009 78.4899C34.6213 81.1891 32.4728 82.964 30.5118 83.9489C28.5175 84.9505 26.6063 85.1815 24.8936 84.575C23.2228 83.9834 22.0951 82.7187 21.3699 81.4447C20.643 80.1675 20.2285 78.7295 20.0345 77.4688L20.015 77.3419L20.0119 77.2135C19.9248 73.6413 20.3134 67.9533 21.7625 62.3514C23.195 56.814 25.7615 50.9771 30.3113 47.5648C32.6344 45.8224 34.9699 45.181 37.1833 45.7814C39.3023 46.3562 40.825 47.9458 41.8795 49.5808C43.6928 52.3926 44.6421 56.1407 44.9251 58.5614C46.6337 59.5383 50.2134 60.3871 55.9631 59.0656C62.4917 57.565 71.5896 53.2964 83.2333 43.6262ZM87.4969 49.5334C83.7953 52.3302 81.3981 56.5003 80.5407 61.0909C79.7166 65.5033 81.1095 71.8403 84.6275 77.1051C88.1076 82.3132 93.4513 86.1647 100.306 86.1647C107.104 86.1647 111.435 84.1008 114.293 81.1679C117.207 78.1781 118.807 74.0644 119.675 69.6035C121.673 59.3421 115.359 47.9266 102.731 46.1452C96.2681 45.2333 91.1741 46.755 87.4969 49.5334ZM32.1527 52.7729C30.6094 54.0643 29.07 56.3289 28.0833 58.7354C25.5575 64.8954 24.329 70.0505 24.2045 73.7361C24.1421 75.5844 24.3625 76.9303 24.7286 77.8194C25.0774 78.6664 25.5039 78.9948 25.9049 79.1292C26.5248 79.337 27.0433 79.3232 27.5365 79.1592C28.0634 78.984 28.6789 78.596 29.375 77.873C30.7995 76.3933 32.244 73.8488 33.7128 70.2946C35.4513 66.0877 36.4387 61.9063 36.6079 58.5083C36.6925 56.8088 36.569 55.3728 36.276 54.2555C35.9807 53.1288 35.5498 52.4577 35.1225 52.0945C34.7329 51.7633 34.4007 51.7007 34.0262 51.7607C33.5643 51.8348 32.9235 52.1278 32.1527 52.7729Z" fill="black"/>
<path d="M28.5973 57.9238C30.2319 53.8501 33.6226 49.8641 35.8864 51.967C38.1501 54.07 37.4893 60.9047 34.7389 67.711C32.4667 73.3336 30.0913 76.5694 27.3065 75.6358C24.3481 74.6441 24.6755 67.6976 28.5973 57.9238Z" fill="black"/>
<path d="M79.2204 59.5926C80.6383 50.9611 87.1846 43.7028 97.6619 45.3834C108.139 47.0641 113.374 57.8764 111.72 67.5403C110.353 75.5235 106.553 83.1398 95.6204 83.1398C84.0062 83.1398 77.8026 68.2242 79.2204 59.5926Z" fill="black"/>
<path fill-rule="evenodd" clip-rule="evenodd" d="M192.773 31.8394C199.663 27.8774 216.061 21.6483 234.631 28.6639L235.484 28.9862L237.021 42.0519V52.6319L234.392 49.6275C230.131 44.7577 216.629 36.8195 197.702 46.4759L196.088 47.2995L191.75 32.4274L192.773 31.8394Z" fill="black"/>
<path d="M233.021 66.6397C215.021 59.8397 205.187 59.3064 198.521 63.1398L194.521 70.6397C212.021 63.1398 226.354 70.8064 231.021 76.1398L233.021 66.6397Z" fill="black"/>
<path fill-rule="evenodd" clip-rule="evenodd" d="M197.773 61.8394C205.096 57.6287 215.547 58.4351 233.551 65.2365L234.753 65.6908L231.87 79.388L229.892 77.1275C225.604 72.2265 211.948 64.803 195.112 72.0184L191.189 73.6997L197.4 62.054L197.773 61.8394Z" fill="black"/>
<path fill-rule="evenodd" clip-rule="evenodd" d="M147.941 17.4759C150.478 16.0981 153.104 15.1397 155.521 15.1397C157.778 15.1397 159.627 16.0898 160.993 17.7532C162.29 19.3337 163.102 21.4873 163.613 23.9146C164.637 28.7734 164.614 35.5149 164.016 43.2929C163.209 53.7735 162.548 56.4958 161.314 61.5743C160.705 64.0808 159.957 67.1613 158.983 72.0319C158.811 72.8891 158.103 73.5356 157.234 73.6284C156.365 73.7212 155.536 73.2388 155.187 72.4371C152.817 66.9861 148.074 60.6362 142.781 54.7235C137.516 48.8409 131.84 43.5371 127.753 40.1861L126.407 39.0822L127.315 37.5966C130.194 32.886 135.036 27.3552 140.137 22.9944C142.695 20.8085 145.366 18.8742 147.941 17.4759Z" fill="black"/>
<path d="M163 78.5C163.776 81.8217 163.601 83.3438 163.601 86.0671L163.601 86.5629C163.607 93.1409 163.615 103.453 155.48 112.342C147.121 121.475 129.697 129.567 93.1011 129.567C43.8484 129.567 19.2693 115.643 9.44864 101.904C4.53337 95.0278 3.29715 88.2087 4.34748 83.0269C5.3978 77.8452 8.67747 74.3505 12.9761 73.5318L14.6019 73.2221V71.5671C14.6019 59.1624 21.8273 47.2231 35.353 38.299C48.8796 29.3742 68.5975 23.5671 93.1011 23.5671C104.522 23.5671 113.57 25.4893 122.117 29.3114C122.91 28.234 123.761 27.1502 124.659 26.0739C115.426 21.7885 105.527 19.5671 93.1011 19.5671C68.0048 19.5671 47.4731 25.51 33.1501 34.9602C19.358 44.0601 11.2211 56.5068 10.6358 70.0014C5.29387 71.6756 1.61833 76.3559 0.427205 82.2323C-0.878819 88.6755 0.744879 96.6063 6.19453 104.23C17.1037 119.491 43.2743 133.567 93.1011 133.567C130.117 133.567 148.943 125.409 158.431 115.042C167.631 104.99 167.612 93.2947 167.602 86.7034C167.601 86.4856 167.601 86.2735 167.601 86.0671C167.601 81.8868 166.808 77.0248 165.208 71.8694C164.917 72.5247 163 78.5 163 78.5Z" fill="black"/>
<path d="M13.8859 140.6H24.0459C25.5393 140.6 26.8793 140.913 28.0659 141.54C29.2526 142.153 30.1926 143.053 30.8859 144.24C31.5926 145.413 31.9459 146.833 31.9459 148.5C31.9459 150.153 31.6393 151.513 31.0259 152.58C30.4126 153.633 29.6726 154.427 28.8059 154.96C27.9526 155.493 27.1593 155.8 26.4259 155.88L32.9059 167H27.2659L21.4059 156.26H18.8659V167H13.8859V140.6ZM18.8659 152.74H22.2659C23.5326 152.74 24.6059 152.427 25.4859 151.8C26.3793 151.173 26.8259 150.12 26.8259 148.64C26.8259 147.16 26.3859 146.12 25.5059 145.52C24.6259 144.907 23.5593 144.6 22.3059 144.6H18.8659V152.74ZM49.9319 167V164.14C49.8119 164.433 49.5052 164.847 49.0119 165.38C48.5185 165.913 47.8519 166.4 47.0119 166.84C46.1852 167.267 45.2119 167.48 44.0919 167.48C42.5185 167.48 41.1252 167.107 39.9119 166.36C38.6985 165.6 37.7452 164.567 37.0519 163.26C36.3719 161.94 36.0319 160.453 36.0319 158.8C36.0319 157.147 36.3719 155.667 37.0519 154.36C37.7452 153.04 38.6985 152 39.9119 151.24C41.1252 150.48 42.5185 150.1 44.0919 150.1C45.1852 150.1 46.1319 150.287 46.9319 150.66C47.7452 151.02 48.3985 151.447 48.8919 151.94C49.3985 152.42 49.7252 152.853 49.8719 153.24V150.58H54.9119V167H49.9319ZM41.0119 158.8C41.0119 159.72 41.2185 160.533 41.6319 161.24C42.0452 161.933 42.5919 162.473 43.2719 162.86C43.9519 163.247 44.6919 163.44 45.4919 163.44C46.3319 163.44 47.0785 163.247 47.7319 162.86C48.3852 162.46 48.8985 161.913 49.2719 161.22C49.6585 160.513 49.8519 159.707 49.8519 158.8C49.8519 157.893 49.6585 157.093 49.2719 156.4C48.8985 155.693 48.3852 155.14 47.7319 154.74C47.0785 154.34 46.3319 154.14 45.4919 154.14C44.6919 154.14 43.9519 154.34 43.2719 154.74C42.5919 155.127 42.0452 155.673 41.6319 156.38C41.2185 157.073 41.0119 157.88 41.0119 158.8ZM69.8422 150.58H75.6822L67.6622 158.42L76.4022 167H70.4222L63.6022 160.14V167H58.5222V139.48H63.6022V156.6L69.8422 150.58ZM83.14 158.44C83.14 159.907 83.4333 161.08 84.02 161.96C84.6067 162.827 85.5533 163.26 86.86 163.26C88.18 163.26 89.1333 162.827 89.72 161.96C90.3067 161.08 90.6 159.907 90.6 158.44V150.58H95.6V159.02C95.6 160.713 95.26 162.2 94.58 163.48C93.9 164.747 92.9067 165.733 91.6 166.44C90.3067 167.133 88.7267 167.48 86.86 167.48C85.0067 167.48 83.4267 167.133 82.12 166.44C80.8267 165.733 79.84 164.747 79.16 163.48C78.48 162.2 78.14 160.713 78.14 159.02V150.58H83.14V158.44ZM104.507 158.44C104.507 159.907 104.801 161.08 105.387 161.96C105.974 162.827 106.921 163.26 108.227 163.26C109.547 163.26 110.501 162.827 111.087 161.96C111.674 161.08 111.967 159.907 111.967 158.44V150.58H116.967V159.02C116.967 160.713 116.627 162.2 115.947 163.48C115.267 164.747 114.274 165.733 112.967 166.44C111.674 167.133 110.094 167.48 108.227 167.48C106.374 167.48 104.794 167.133 103.487 166.44C102.194 165.733 101.207 164.747 100.527 163.48C99.8472 162.2 99.5072 160.713 99.5072 159.02V150.58H104.507V158.44ZM131.554 150.1C132.674 150.1 133.768 150.333 134.834 150.8C135.901 151.253 136.774 151.98 137.454 152.98C138.148 153.98 138.494 155.287 138.494 156.9V167H133.394V157.78C133.394 156.433 133.074 155.433 132.434 154.78C131.808 154.127 130.981 153.8 129.954 153.8C129.288 153.8 128.648 153.987 128.034 154.36C127.434 154.72 126.941 155.227 126.554 155.88C126.181 156.52 125.994 157.253 125.994 158.08V167H120.914V150.58H125.994V153.2C126.141 152.747 126.474 152.28 126.994 151.8C127.514 151.32 128.174 150.92 128.974 150.6C129.774 150.267 130.634 150.1 131.554 150.1ZM157.953 145.02H151.333V140.6H169.553V145.02H162.953V167H157.953V145.02ZM173.526 159.92C173.566 160.667 173.766 161.333 174.126 161.92C174.486 162.507 175.006 162.967 175.686 163.3C176.38 163.633 177.206 163.8 178.166 163.8C179.033 163.8 179.793 163.693 180.446 163.48C181.113 163.267 181.673 163.007 182.126 162.7C182.593 162.38 182.94 162.073 183.166 161.78L185.266 164.9C184.893 165.367 184.393 165.8 183.766 166.2C183.153 166.587 182.366 166.893 181.406 167.12C180.46 167.36 179.273 167.48 177.846 167.48C176.046 167.48 174.466 167.127 173.106 166.42C171.746 165.713 170.686 164.693 169.926 163.36C169.166 162.027 168.786 160.44 168.786 158.6C168.786 157 169.126 155.56 169.806 154.28C170.486 152.987 171.473 151.967 172.766 151.22C174.073 150.473 175.64 150.1 177.466 150.1C179.186 150.1 180.673 150.433 181.926 151.1C183.193 151.753 184.173 152.713 184.866 153.98C185.56 155.247 185.906 156.793 185.906 158.62C185.906 158.727 185.9 158.947 185.886 159.28C185.886 159.6 185.873 159.813 185.846 159.92H173.526ZM181.146 156.78C181.133 156.353 181 155.893 180.746 155.4C180.506 154.907 180.126 154.487 179.606 154.14C179.086 153.793 178.393 153.62 177.526 153.62C176.66 153.62 175.946 153.787 175.386 154.12C174.84 154.453 174.426 154.867 174.146 155.36C173.866 155.84 173.706 156.313 173.666 156.78H181.146ZM197.777 163.44C198.643 163.44 199.35 163.293 199.897 163C200.443 162.707 200.803 162.487 200.977 162.34L203.337 165.84C203.15 165.987 202.803 166.193 202.297 166.46C201.79 166.727 201.143 166.96 200.357 167.16C199.583 167.373 198.697 167.48 197.697 167.48C195.963 167.48 194.41 167.133 193.037 166.44C191.663 165.733 190.577 164.733 189.777 163.44C188.99 162.133 188.597 160.58 188.597 158.78C188.597 156.967 188.99 155.413 189.777 154.12C190.577 152.827 191.663 151.833 193.037 151.14C194.41 150.447 195.963 150.1 197.697 150.1C198.683 150.1 199.557 150.207 200.317 150.42C201.09 150.633 201.737 150.88 202.257 151.16C202.777 151.427 203.137 151.647 203.337 151.82L200.917 155.34C200.823 155.233 200.643 155.087 200.377 154.9C200.11 154.713 199.757 154.54 199.317 154.38C198.89 154.22 198.377 154.14 197.777 154.14C197.043 154.14 196.343 154.333 195.677 154.72C195.023 155.107 194.49 155.647 194.077 156.34C193.663 157.033 193.457 157.847 193.457 158.78C193.457 159.713 193.663 160.533 194.077 161.24C194.49 161.933 195.023 162.473 195.677 162.86C196.343 163.247 197.043 163.44 197.777 163.44ZM216.812 150.1C217.932 150.1 219.025 150.333 220.092 150.8C221.158 151.253 222.032 151.98 222.712 152.98C223.405 153.98 223.752 155.287 223.752 156.9V167H218.652V157.78C218.652 156.433 218.345 155.433 217.732 154.78C217.132 154.127 216.325 153.8 215.312 153.8C214.632 153.8 213.978 153.987 213.352 154.36C212.738 154.72 212.232 155.227 211.832 155.88C211.445 156.52 211.252 157.253 211.252 158.08V167H206.152V139.48H211.252V153.2C211.385 152.747 211.712 152.28 212.232 151.8C212.752 151.32 213.412 150.92 214.212 150.6C215.012 150.267 215.878 150.1 216.812 150.1Z" fill="#222222"/>
</svg>
