<svg width="230" height="126" fill="none" xmlns="http://www.w3.org/2000/svg"><path d="M78.562 70.653c.486.974 1.038 1.93 1.655 2.854 3.48 5.209 8.824 9.06 15.678 9.06 6.799 0 11.129-2.064 13.988-4.997 2.914-2.99 4.514-7.103 5.382-11.564 1.997-10.262-4.316-21.677-16.944-23.459a28.178 28.178 0 0 0-.964-.119c7.987 3.334 11.809 12.662 10.362 21.112-1.367 7.983-5.167 15.6-16.1 15.6-5.786 0-10.23-3.703-13.057-8.487ZM34.032 15.738C30.15 21.572 27.3 28.073 25.785 33.33a66.74 66.74 0 0 1 3.365-2.37c9.785-6.457 22.467-11.276 37.523-13.681-2.095-6.797-3.665-10.793-5.34-13.156-.915-1.29-1.801-1.999-2.76-2.42-.993-.436-2.23-.637-3.972-.637-7.743 0-14.971 6.264-20.568 14.67ZM192.499 66.5c-2.135 4.134-4.832 6.384-8.472 8.711-6.914 4.421-12.324 6.167-17.427 6.7v.156l.001.636c.006 3.707.014 9.027-1.615 14.762 9.479-.159 18.839-.958 33.669-4.348 9.68-2.212 16.402-6.808 21.058-12.596 2.42-3.008 3.341-4.463 4.786-8.021-5.5-4.813-17.599-10.634-32-6ZM193.136 40.08c.411 1.902.88 3.901 1.405 6.002 1.082 4.328 1.468 6.98.958 10.418 6.523-3.29 15.901-3.148 32.583 3.042.15-.678.289-1.359.417-2.042 1.111-5.942 1.304-10.241 1.109-15.72-5.982-5.058-19.115-10.501-36.472-1.7ZM216.059 9.25c-5.017-2.367-10.941-2.39-16.23-.32-2.592 1.014-4.487 2.405-5.846 4.197-1.365 1.8-2.282 4.13-2.715 7.16-.328 2.296-.372 4.944-.143 7.984 6.997-3.574 20.702-8 36.288-3.13a68.752 68.752 0 0 0-.256-1.103c-1.87-7.713-6.128-12.442-11.098-14.787ZM58.737 69.14c-6.357-4.875-13.544-4.742-17.606-4.07-.794.181-1.58.4-2.334.656.829.201 1.553.598 2.177 1.225.48.482.828 1.03 1.101 1.51.152.266.33.607.498.927h.001c.102.195.2.38.285.538l.241.446v.507c0 .917-.203 1.758-.714 2.545-.457.705-1.092 1.248-1.678 1.712l-.545.431h-.696c-2.306 0-4.207-.413-5.652-1.08a8.376 8.376 0 0 1-.591-.301l-.625.706c-.14.158-.278.312-.416.464.321 2.736 1.422 5.917 3.377 8.767 2.45 3.572 6.16 6.51 11.195 7.44.973-.043 2.31-.48 3.813-1.47 1.56-1.028 3.177-2.576 4.574-4.6 2.683-3.888 4.516-9.477 3.595-16.352ZM26.38 50.566c-1.049 1.262-2.014 2.882-2.707 4.572-2.526 6.16-3.754 11.315-3.879 15-.062 1.849.158 3.195.524 4.084.349.847.775 1.175 1.176 1.31.62.207 1.139.194 1.632.03.527-.176 1.142-.564 1.838-1.287 1.291-1.34 2.598-3.555 3.925-6.602-1.722 3.092-3.543 4.647-5.583 3.963-2.959-.992-2.631-7.938 1.29-17.712a17.818 17.818 0 0 1 1.783-3.358Z" fill="#fff"/><path fill-rule="evenodd" clip-rule="evenodd" d="M158.157.399c-1.747-.525-3.899-.574-6.562.106-8.89 2.27-16.892 8.33-23.155 14.734-6.248 6.39-10.582 12.932-12.16 15.852a2 2 0 0 1-3.519-1.902c.643-1.19 1.662-2.863 3.015-4.832-7.793-3.01-16.672-4.79-26.676-4.79-24.503 0-44.221 5.807-57.748 14.732-13.526 8.924-20.751 20.863-20.751 33.268v1.655l-1.626.31c-4.298.819-7.578 4.313-8.628 9.495-1.05 5.182.185 12 5.1 18.877 9.821 13.739 34.4 27.663 83.653 27.663 36.596 0 54.02-8.092 62.379-17.225a29.147 29.147 0 0 0 6.02-9.968l.178-.512.12-.362c1.811-5.586 1.807-10.948 1.803-14.937v-.496c0-1.003.105-3.47 0-4.567-.6-.3-.6-.3-1.1-.5 0-1.789.595-4.952.944-6l3.175-12.48c3.686-11.556 6.146-27.909 4.827-40.521-.663-6.342-2.252-11.422-4.821-14.529-1.256-1.518-2.731-2.55-4.468-3.071ZM62.63 68.104c1.219 8.12-.9 14.886-4.197 19.662-1.666 2.413-3.643 4.335-5.663 5.666-1.992 1.314-4.155 2.135-6.173 2.135h-.173l-.17-.03c-6.369-1.107-11.014-4.809-13.993-9.151a24.612 24.612 0 0 1-3.524-7.752c-.916.725-1.793 1.294-2.636 1.717-1.994 1.002-3.905 1.233-5.618.626-1.67-.591-2.798-1.856-3.524-3.13-.726-1.277-1.141-2.715-1.335-3.976l-.02-.127-.003-.128c-.087-3.572.302-9.26 1.751-14.862 1.433-5.538 4-11.375 8.549-14.787 2.323-1.742 4.659-2.384 6.872-1.783 2.119.575 3.642 2.164 4.696 3.8 1.813 2.811 2.763 6.559 3.046 8.98 1.708.977 5.288 1.825 11.038.504 6.528-1.5 15.626-5.77 27.27-15.44 9.133-7.585 26.854-8.735 36.865 4.322 9.739 12.703 8.117 29.842-.173 38.131-2.498 2.498-8.398 5.919-15.536 7.061-7.221 1.155-15.87 0-23.631-6.912-3.748-2.7-6.433-6.037-8.809-8.988l-.06-.075c-1.693-2.104-3.202-3.965-4.849-5.463Zm81.31-54.628c2.537-1.378 5.163-2.336 7.581-2.336 2.256 0 4.105.95 5.471 2.613 1.298 1.58 2.109 3.734 2.62 6.162 1.024 4.858 1.001 11.6.403 19.378-.807 10.48-1.468 13.203-2.702 18.281a235.337 235.337 0 0 0-2.331 10.458 2.001 2.001 0 0 1-3.796.405c-2.37-5.45-7.113-11.8-12.406-17.713-5.265-5.883-10.941-11.187-15.028-14.538l-1.346-1.104.908-1.485c2.879-4.711 7.721-10.242 12.823-14.603 2.557-2.186 5.228-4.12 7.803-5.518Z" fill="#fff"/></svg>